<svg xmlns="http://www.w3.org/2000/svg" width="11.28" height="11.3" viewBox="0 0 11.28 11.3"><title>dot-3</title><path d="M6.68 1.79C3.37.15-1.21 3.32.3 7.11c1.3 3.28 6.46 3.75 8 .47C10.11 3.92 6-.22 2.47 2.09-1.37 4.58 1.19 9.66 5 10.34c4 .72 7.18-3.66 5.57-7.34s-7.13-4.12-9.2-.7c-2 3.24.42 8.14 4.53 7A4.15 4.15 0 0 0 9 5.64C9.08 3.65 6.7 3 5.08 3.35a4.15 4.15 0 0 0-3.43 4.1 4.31 4.31 0 0 0 3.87 3.83c4.81.51 5.45-6.37 1.33-7.88A1.51 1.51 0 0 0 5 4.84 3.36 3.36 0 0 0 8.44 8a3.2 3.2 0 0 0 2.79-3.78C10.94 2.68 9.37 1 7.75 2.14a1.93 1.93 0 0 0 1.34 3.45c1.92-.12 1.93-3.12 0-3l.66.36.16 1.15v-.27l-.69.9-1.2-.32a.35.35 0 0 1 .21.41S8 5.39 8 4.84L6.05 6.29c1.21.44.57 2.86-.92 1.73s.56-2.22 1.63-1.44L6 5.28a1.18 1.18 0 0 1-2.23.5A2 2 0 0 1 5.38 3c3.55-.49 3.18 5.06 0 4.37C4.33 7.14 2.75 5.72 4 4.69s2.27.68 1.61 1.7c-.52.79-2.05.51-2.46-.27C2.57 5 4.21 3.91 5.16 4.38c1.72.86 3.24-1.73 1.51-2.59z" data-name="dot 03"/></svg>