<svg xmlns="http://www.w3.org/2000/svg" width="13.56" height="12.95" viewBox="0 0 13.56 12.95"><title>dot-7</title><path d="M10.89 1.19A6.61 6.61 0 0 0 .46 6.68a6.53 6.53 0 0 0 9.75 5.39c3.86-2.32 3.71-8.76-.49-10.62S.57 3.16 1.63 7.73c1.38 5.94 9.16 6.06 11.75 1a1.53 1.53 0 0 0-.54-2.05A7.87 7.87 0 0 0 2.42 9a1.52 1.52 0 0 0 .23 1.82c2.73 3.25 8.2.61 7-3.6-.9-3.22-6.2-3.17-6.47.33s5.58 4.71 6.44 1.09A4 4 0 0 0 7.3 4.37c-2.24-1.09-4.61.06-6.57 1.2a1.52 1.52 0 0 0 0 2.59A7.14 7.14 0 0 0 11 5.64a1.54 1.54 0 0 0-.23-1.82 4.48 4.48 0 0 0-7.3 1.93c-.6 1.84 2.3 2.63 2.89.8a1.44 1.44 0 0 1 2.3-.6l-.24-1.83a4.15 4.15 0 0 1-6.18 1.45v2.59a6.77 6.77 0 0 1 2.91-1.23 1.43 1.43 0 0 1 1.45.67q.33.45-.08.28c-.19-.46 0 .37.23.09a1 1 0 0 1-.85 1.34 1.27 1.27 0 0 1-1.13-.66L5 10.47a4.81 4.81 0 0 1 6.32-1.2l-.54-2.05a3.79 3.79 0 0 1-3.51 2.27 3.09 3.09 0 0 1-2.79-3.23C4.82 3 9.79 3.4 10 6.59s-3.84 4.48-5.81 2.09C1.35 5.22 6.1 1.54 9.37 3.78c1.6 1.1 3.1-1.5 1.51-2.59z" data-name="dot 07"/></svg>