<svg xmlns="http://www.w3.org/2000/svg" width="12.03" height="10.42" viewBox="0 0 12.03 10.42"><title>dot-6</title><path d="M9.28 2.28a4.84 4.84 0 0 0-8.06.53c-1.76 3.32 1.16 7.45 4.71 7.58a6.45 6.45 0 0 0 4.91-2.13 3.75 3.75 0 0 0 .49-4.94c-1.74-3-6.16-4.47-8.7-1.55C.68 4 .83 7.93 3.7 9.3a4.76 4.76 0 0 0 6.56-5.15A5.13 5.13 0 0 0 2.18 1a5.16 5.16 0 0 0 .77 8.87c3.74 1.93 7.92-1.45 7.43-5.47-.26-2.08-1.84-2.91-3.82-2.66a5 5 0 0 0-4.16 3.5C1.82 7.09 4.71 7.88 5.29 6a1.91 1.91 0 0 1 2.55-1.2l-.69-.9c1.06 2.65-2.35 5-3.92 2.27-1.77-3 4.17-4.7 4.12-1.2 0 2.46-4.16 2-2.79-.8s4.33.18 4.6 2.08l.15-1.16c-1 1.9-3.81 3.4-5.23 1a1.84 1.84 0 0 1 .27-2.51 1.84 1.84 0 0 1 2.33.13c1.16 1.51 3.76 0 2.59-1.51z" data-name="dot 06"/></svg>