<svg xmlns="http://www.w3.org/2000/svg" width="12.8" height="11.21" viewBox="0 0 12.8 11.21"><title>dot-1</title><path d="M8.36 0c-3.41-.12-6.7 2.66-6.25 6.25.4 3.19 3.77 5.67 6.9 4.48 2.84-1.08 4.37-4.81 2.52-7.38a4.91 4.91 0 0 0-7.35-.51 1.52 1.52 0 0 0 1.06 2.57h2.05v-3A7.49 7.49 0 0 0 0 8.06a1.52 1.52 0 0 0 .74 1.69c2 1 4.36 2 6.63 1.15a4.49 4.49 0 0 0 3-4.24c-.21-3.21-5.29-4.12-6.29-.94-1.23 3.9 5.13 4.19 7.23 2.72C14.8 6 11.42 2 8.08 3.65A1.51 1.51 0 0 0 7.77 6L10 7.84c1.47 1.23 3.61-.88 2.12-2.12L9.89 3.89l-.3 2.36.41.25.15-1.16a2.29 2.29 0 0 1-3.59.39L7 6.79c0-.1.29 0 .29 0 0 .82-.51 1.18-1.28 1.36-1.29.31-2.66-.41-3.8-.95l.69 1.69a4.46 4.46 0 0 1 4.4-3.43 1.5 1.5 0 0 0 0-3H5.25L6.3 5C8.4 2.8 11 7.08 7.79 8c-1.5.41-2.86-1.17-2.7-2.6A3 3 0 0 1 8.36 3c1.93.07 1.93-2.93 0-3z" data-name="dot 01"/></svg>