<svg xmlns="http://www.w3.org/2000/svg" width="11.61" height="11.63" viewBox="0 0 11.61 11.63"><title>dot-4</title><path d="M4.06 5.14a2.68 2.68 0 0 0 4.3-1c.9-1.89-.58-3.72-2.46-4C1.17-.73-1.49 5.44.88 9A5.86 5.86 0 0 0 11 8.34 5.43 5.43 0 0 0 5.51.57C1.37.95-.2 5.89 2.25 9c2.67 3.37 7.85 1.33 8.5-2.64.68-4.14-4.22-6.22-7.4-4.24-3.79 2.33-1.57 7.76 2.35 8.36 4.61.7 6.38-5.44 3.3-8.25-3.84-3.5-9.19 2.08-6.88 6.18a1.56 1.56 0 0 0 1.69.69c2.88-.41 7-2.38 5.53-6.05a3.09 3.09 0 0 0-5.71.08c-.74 1.78 2.16 2.55 2.89.8q-.39.28-.13.23t.22.14a1.64 1.64 0 0 1-.71 1.11A6.43 6.43 0 0 1 3 6.2l1.69.69C3.79 5.26 6.35 3 7.36 5 8.25 6.67 6.59 8.37 5 7s.1-3.14 1.81-2.55c2.06.71.33 3.74-1.42 3.3S3.56 4.52 5 3.76a2.5 2.5 0 0 1 3.57 2.63 2.85 2.85 0 1 1-5.34-1.87 2.7 2.7 0 0 1 1.14-1.29C4.74 3 5.81 2.68 6.18 3c-1.41-1.32-3.53.8-2.12 2.12z" data-name="dot 04"/></svg>