<svg xmlns="http://www.w3.org/2000/svg" width="12.71" height="12.28" viewBox="0 0 12.71 12.28"><title>dot-5</title><path d="M11.35 1.61C8.69-.9 3.73-.27 2.4 3.39s2.19 8.21 6.25 7.15a5.36 5.36 0 0 0 1.92-9.48A5.15 5.15 0 0 0 4.68.8C3.14 1.77 1.73 4 2.14 5.86 3 10 9.83 8.36 10.39 4.77a1.6 1.6 0 0 0-.69-1.69 5 5 0 0 0-7.54 2.39c-1 3.2 2 6.51 5.24 6.19S12.18 7.74 11.12 5C10 1.91 6.11 1.46 3.68 3.29a4.89 4.89 0 0 0 .34 8 5.25 5.25 0 0 0 7.9-2.08 5.72 5.72 0 0 0-3.16-7.9A6.29 6.29 0 0 0 .62 4.83c-.57 1.36-1.1 4.11.1 5.31s3.63 1.08 5.07.8a8.43 8.43 0 0 0 6.78-7.39c.19-1.92-2.81-1.91-3 0C9.23 7 5.21 8.9 2.18 7.63l1 1C2.44 5.6 5.61 2.2 8.54 4.55 11.67 7.06 6.77 11.62 5 7.86c-1.61-3.34 5.35-3.45 3.2.06-.93 1.45-3.29.46-3.2-1.15s2.22-1.85 3.23-1.1L7.49 4c-.21 1.34-2.83 1.91-2.16.43 1.36-3 5.84-.45 4 2.17a2.34 2.34 0 0 1-4.24-1.51C5.14 3 7.91 2.49 9.23 3.74s3.53-.79 2.12-2.12z" data-name="dot 05"/></svg>