<svg xmlns="http://www.w3.org/2000/svg" width="52.83" height="31.78" viewBox="0 0 52.83 31.78"><title>arrow-8</title><g data-name="arrow 08"><path d="M50.47 13.89L29.87.25c-1.45-1-3 1.16-1.82 2.36 5.62 5.8 15.18 6.69 19.46 13.83a1.5 1.5 0 0 0 2.59-1.51C45.54 7.31 36.1 6.56 30.18.49l-1.82 2.35L49 16.48c1.61 1.07 3.12-1.53 1.51-2.59z"/><path d="M50.66 14.22q-10.41 7.44-21.38 14a1.5 1.5 0 0 0 1.51 2.59q11-6.59 21.38-14c1.56-1.11.06-3.72-1.51-2.59z"/><path d="M26.76 1.75l.2 28.5a1.5 1.5 0 0 0 3 0l-.2-28.5a1.5 1.5 0 0 0-3 0z"/><path d="M28.16 7.76l-26 2.25c-1.91.16-1.93 3.17 0 3l26-2.24c1.91-.16 1.93-3.17 0-3zM27.94 22.25a237.77 237.77 0 0 1-25.28 1.4 1.5 1.5 0 0 0 0 3 237.77 237.77 0 0 0 25.28-1.4c1.9-.21 1.92-3.21 0-3z"/><path d="M0 9.75l.63 16.26c.07 1.92 3.07 1.93 3 0L3 9.75c-.07-1.92-3.07-1.93-3 0zM3.27 13.75l1.06 12.16a1.5 1.5 0 0 0 3 0l.9-13.68-2.95.4 3 10.14a1.51 1.51 0 0 0 2.95-.4l.45-10.89-2.95.4 2.48 10.85a1.51 1.51 0 0 0 2.95-.4 53.75 53.75 0 0 1 .77-9.74l-2.74.36a59.2 59.2 0 0 1 3.23 8.64c.38 1.33 2.63 1.53 2.89 0l1.34-7.71-2.74.36a25 25 0 0 1 3.14 8.54c.32 1.79 2.79 1.16 2.95-.4l1-9.73-3 .36 2 10.33c.34 1.78 2.79 1.16 2.95-.4L27 12.81l-3 .4 1.26 6.58a1.51 1.51 0 0 0 2.89 0l1-5.66h-2.88l.19.77c.47 1.87 3.36 1.08 2.89-.8l-.19-.77c-.34-1.37-2.63-1.49-2.89 0l-1 5.66h2.89l-1.26-6.58c-.34-1.78-2.79-1.16-2.95.4l-1 10.2 2.95-.4-2-10.33c-.34-1.78-2.79-1.16-2.95.4l-1 9.73 3.05-.4a27.26 27.26 0 0 0-3.44-9.26c-.61-1-2.51-1-2.74.36l-1.34 7.71h2.89a64.13 64.13 0 0 0-3.53-9.36 1.51 1.51 0 0 0-2.74.36 58 58 0 0 0-.88 10.54l2.95-.4-2.53-10.88c-.39-1.7-2.88-1.24-2.95.4l-.45 10.89 2.95-.4-3-10.14a1.51 1.51 0 0 0-2.95.4l-.91 13.68h3L6.27 13.75c-.17-1.91-3.17-1.93-3 0z"/><path d="M29.53 5.75l.16 24.58a1.5 1.5 0 0 0 3 0V10.74l-2.95.4L32 21.88a1.51 1.51 0 0 0 2.89 0L37.6 7.75l-2.95-.4 1.21 12.9c.14 1.53 2.69 2.2 2.95.4L40 12.01l-2.95-.4a77.76 77.76 0 0 1 .41 9.57c0 2 2.8 1.88 3 0l.75-7.07h-3l.57 5.13a1.51 1.51 0 0 0 2.95.4 32.74 32.74 0 0 0 1.35-8.63h-3l.41 4.74a1.51 1.51 0 0 0 2.8.76 9.57 9.57 0 0 0 1.56-3.26l-2.74.36c.42.74 3.37 4.79 3.36 5.05-.05 1.93 2.95 1.93 3 0 .1-3.47-2.27-3.93-3.77-6.56a1.52 1.52 0 0 0-2.74.36l-1.25 2.55 2.8.76-.41-4.74a1.5 1.5 0 0 0-3 0 29.81 29.81 0 0 1-1.25 7.83l2.95.4-.57-5.13a1.5 1.5 0 0 0-3 0l-.75 7.07h3a77.76 77.76 0 0 0-.41-9.57c-.16-1.52-2.69-2.22-2.95-.4l-1.2 8.59 2.95.4-1.22-12.86c-.15-1.55-2.61-2.19-2.95-.4L32 21.08h2.9l-2.3-10.74c-.36-1.67-3-1.27-2.95.4v19.59h3l-.12-24.58a1.5 1.5 0 0 0-3 0z"/></g></svg>