<svg xmlns="http://www.w3.org/2000/svg" width="74.5" height="35.9" viewBox="0 0 74.5 35.9"><path d="M73 18.6c-11.7 0-23.3.7-35 .8-5.7 0-11.5-.1-17.2-.7-6.1-.7-12.1-1.8-18.3-1.6-1.9.1-1.9 3.1 0 3 5.6-.2 11 .6 16.5 1.3 5.7.8 11.4.9 17.1.9 12.3.1 24.6-.8 37-.8 1.8.1 1.8-2.9-.1-2.9z"/><path d="M.4 19.7c2.4 2.7 5.1 4.9 7.9 7.2 3.2 2.6 6.8 4.7 9 8.2 1 1.6 3.6.1 2.6-1.5-1.9-3-4.4-5-7.3-7.1C9 24 5.5 20.9 2.5 17.6c-1.3-1.5-3.4.7-2.1 2.1z"/><path d="M2.5 17.8c2.7-2.4 5-5.2 7.4-8 2.4-2.7 5.7-6.9 9.7-6.9 1.9 0 1.9-3 0-3C11.2-.1 6 10.9.4 15.7c-1.5 1.2.7 3.3 2.1 2.1z"/></svg>