<svg xmlns="http://www.w3.org/2000/svg" width="74.5" height="35.9" viewBox="0 0 74.5 35.9"><path d="M1.5 17.3c11.7 0 23.3-.7 35-.8 5.7 0 11.5.1 17.2.7 6.1.7 12.1 1.8 18.3 1.6 1.9-.1 1.9-3.1 0-3-5.6.2-11-.6-16.5-1.3-5.7-.8-11.4-.9-17.1-.9-12.3-.1-24.6.8-37 .8-1.9-.1-1.9 2.9.1 2.9z"/><path d="M74 16.1c-2.4-2.7-5.1-4.9-7.9-7.2-3.2-2.6-6.8-4.7-9-8.2-1-1.6-3.6-.1-2.6 1.5 1.9 3 4.4 5 7.3 7.1 3.6 2.6 7.1 5.7 10.1 9 1.3 1.4 3.4-.7 2.1-2.2z"/><path d="M71.9 18c-2.8 2.4-5 5.2-7.4 8-2.4 2.7-5.7 6.9-9.7 6.9-1.9 0-1.9 3 0 3C63.2 36 68.4 25 74 20.2c1.5-1.3-.6-3.4-2.1-2.2z"/></svg>