<svg xmlns="http://www.w3.org/2000/svg" width="72.87" height="36.08" viewBox="0 0 72.87 36.08"><title>arrow-left-9</title><g data-name="arrow 09"><path d="M1.46 21.46a218.3 218.3 0 0 0 20.86 14.39 1.5 1.5 0 0 0 1.51-2.59A211.8 211.8 0 0 1 3.58 19.34c-1.51-1.17-3.64.94-2.12 2.12z"/><path d="M2.63 19.79q10.91-9 22.63-16.94c1.59-1.08.09-3.68-1.51-2.59Q11.75 8.4.51 17.67C-1 18.9 1.15 21 2.63 19.79zM24.82 28.21l44 1.76c1.9.11 1.89-2.89 0-3l-44-1.76c-1.93-.08-1.93 2.92 0 3zM24 10.08l47.34-.17a1.5 1.5 0 0 0 0-3L24 7.08a1.5 1.5 0 1 0 0 3z"/><path d="M70.64 29.17l1.57-19.65c.15-1.92-2.85-1.91-3 0l-1.57 19.65c-.15 1.92 2.85 1.91 3 0zM24.5 32.94l.45-7.33c.12-1.93-2.88-1.92-3 0l-.45 7.33c-.12 1.93 2.88 1.92 3 0zM25.14 8.94l.37-5.66c.13-1.93-2.88-1.92-3 0l-.37 5.66c-.14 1.93 2.86 1.92 3 0z"/></g></svg>