<svg xmlns="http://www.w3.org/2000/svg" width="65.45" height="23.82" viewBox="0 0 65.45 23.82"><title>arrow-left-4</title><g data-name="arrow 04"><path d="M.88 14.24l20.46 9.41a1.5 1.5 0 0 0 1.51-2.59 94 94 0 0 0-19.74-9.94c-1.82-.66-2.6 2.23-.8 2.89a90.61 90.61 0 0 1 19 9.64l1.54-2.59-20.46-9.41c-1.74-.8-3.27 1.78-1.51 2.59z"/><path d="M3.6 14.56L21.32 2.82c1.6-1.06.16-3.58-1.51-2.59L.7 11.56a1.5 1.5 0 0 0 1.51 2.59L21.32 2.82 19.81.23 2.09 11.93C.49 13 2 15.59 3.6 14.52z"/><path d="M3.65 14.4L64 15.7a1.5 1.5 0 0 0 0-3L4.59 11.19v3a509.49 509.49 0 0 0 53.55-3.13c1.9-.21 1.92-3.21 0-3a509.49 509.49 0 0 1-53.55 3.13 1.5 1.5 0 0 0 0 3L64 15.7v-3L3.65 11.4a1.5 1.5 0 0 0 0 3z"/></g></svg>