<svg xmlns="http://www.w3.org/2000/svg" width="60.56" height="28.79" viewBox="0 0 60.56 28.79"><title>arrow-6</title><g data-name="arrow 06"><path d="M3.14 9.81c10.09-.14 20.19-.23 30.28-.38a1.52 1.52 0 0 0 1.5-1.5V1.48l-2.26 1.3a172.19 172.19 0 0 0 26 11.5l-.36-2.74-20.74 13.83C36 26.43 37.46 29 39.08 28l20.77-13.87a1.52 1.52 0 0 0-.36-2.74A167.42 167.42 0 0 1 34.16.19a1.52 1.52 0 0 0-2.26 1.3v6.45l1.5-1.5c-10.09.14-20.19.23-30.28.38a1.5 1.5 0 0 0 0 3z"/><path d="M34 19.55a13.74 13.74 0 0 0 3.11 8.73c1.2 1.51 3.31-.63 2.12-2.12A10.45 10.45 0 0 1 37 19.55a1.5 1.5 0 0 0-3 0z"/><path d="M0 8.95a40.76 40.76 0 0 1 0 12.77 1.53 1.53 0 0 0 1.45 1.9 304.24 304.24 0 0 0 33-1.07c1.91-.17 1.93-3.17 0-3a304.24 304.24 0 0 1-33 1.07l1.45 1.9a45.88 45.88 0 0 0 0-14.37c-.3-1.9-3.19-1.09-2.89.8z"/></g></svg>