<svg xmlns="http://www.w3.org/2000/svg" width="77.68" height="23.82" viewBox="0 0 77.68 23.82"><title>arrow-left-2</title><g data-name="arrow 02"><path d="M73.62 12.28l-53.44 1.08v3l56-1.31a1.5 1.5 0 0 0 0-3L6.26 10.82a1.5 1.5 0 0 0 0 3L76.17 15v-3l-56 1.31a1.5 1.5 0 0 0 0 3l53.45-1.07a1.5 1.5 0 0 0 0-2.96z"/><path d="M.88 14.24l20.46 9.41a1.5 1.5 0 0 0 1.51-2.59 94 94 0 0 0-19.74-9.94c-1.82-.66-2.6 2.23-.8 2.89a90.61 90.61 0 0 1 19 9.64l1.54-2.59-20.46-9.41c-1.74-.8-3.27 1.78-1.51 2.59z"/><path d="M3.62 14.56l17.7-11.74c1.6-1.06.16-3.58-1.51-2.59L.7 11.56a1.5 1.5 0 0 0 1.51 2.59L21.32 2.82 19.81.23 2.09 11.93C.49 13 2 15.59 3.6 14.52z"/></g></svg>