<svg xmlns="http://www.w3.org/2000/svg" width="52.83" height="31.84" viewBox="0 0 52.83 31.84"><title>arrow-left-8</title><g id="Layer_2" data-name="Layer 2"><g id="Layer_1-2" data-name="Layer 1"><g id="Layer_2-2" data-name="Layer 2"><g id="arrow_08" data-name="arrow 08"><path d="M2.36,17.94,23,31.58c1.45,1,3-1.16,1.82-2.36C19.16,23.42,9.6,22.53,5.32,15.39A1.5,1.5,0,0,0,2.73,16.9c4.56,7.62,14,8.37,19.92,14.44L24.47,29,3.83,15.35C2.22,14.28.71,16.88,2.32,17.94Z"/><path d="M2.17,17.61q10.41-7.44,21.38-14A1.5,1.5,0,0,0,22,1Q11,7.61.66,15C-.9,16.13.6,18.74,2.17,17.61Z"/><path d="M26.07,30.08l-.2-28.5a1.5,1.5,0,0,0-3,0l.2,28.5a1.5,1.5,0,1,0,3,0Z"/><path d="M24.67,24.07l26-2.25c1.91-.16,1.93-3.17,0-3l-26,2.24c-1.91.16-1.93,3.17,0,3Z"/><path d="M24.89,9.58a237.77,237.77,0,0,1,25.28-1.4,1.5,1.5,0,0,0,0-3,237.77,237.77,0,0,0-25.28,1.4C23,6.79,23,9.79,24.89,9.58Z"/><path d="M52.83,22.08,52.2,5.82c-.07-1.92-3.07-1.93-3,0l.63,16.26C49.9,24,52.9,24,52.83,22.08Z"/><path d="M49.56,18.08,48.5,5.92a1.5,1.5,0,0,0-3,0L44.6,19.6l2.95-.4-3-10.14a1.51,1.51,0,0,0-2.95.4l-.45,10.89L44.1,20,41.62,9.1a1.51,1.51,0,0,0-2.95.4,53.75,53.75,0,0,1-.77,9.74l2.74-.36a59.2,59.2,0,0,1-3.23-8.64c-.38-1.33-2.63-1.53-2.89,0L33.18,18l2.74-.36a25,25,0,0,1-3.14-8.54c-.32-1.79-2.79-1.16-3,.4l-1,9.73,3-.36-2-10.33c-.34-1.78-2.79-1.16-3,.4L25.83,19l3-.4L27.57,12a1.51,1.51,0,0,0-2.89,0l-1,5.66h2.88l-.19-.77c-.47-1.87-3.36-1.08-2.89.8l.19.77c.34,1.37,2.63,1.49,2.89,0l1-5.66H24.67l1.26,6.58c.34,1.78,2.79,1.16,3-.4l1-10.2-3,.4,2,10.33c.34,1.78,2.79,1.16,3-.4l1-9.73-3,.4a27.26,27.26,0,0,0,3.44,9.26c.61,1,2.51,1,2.74-.36L37.35,11H34.46A64.13,64.13,0,0,0,38,20.37,1.51,1.51,0,0,0,40.73,20a58,58,0,0,0,.88-10.54l-2.95.4,2.53,10.88c.39,1.7,2.88,1.24,2.95-.4l.45-10.89-2.95.4,3,10.14a1.51,1.51,0,0,0,2.95-.4L48.5,5.92h-3l1.06,12.16C46.73,20,49.73,20,49.56,18.08Z"/><path d="M23.3,26.08,23.14,1.5a1.5,1.5,0,0,0-3,0V21.09l3-.4L20.83,9.95a1.51,1.51,0,0,0-2.89,0L15.23,24.08l3,.4L17,11.58c-.14-1.53-2.69-2.2-3-.4l-1.19,8.64,3,.4a77.76,77.76,0,0,1-.41-9.57c0-2-2.8-1.88-3,0l-.75,7.07h3L14,12.59a1.51,1.51,0,0,0-3-.4,32.74,32.74,0,0,0-1.35,8.63h3l-.41-4.74a1.51,1.51,0,0,0-2.8-.76A9.57,9.57,0,0,0,8,18.58l2.74-.36c-.42-.74-3.37-4.79-3.36-5.05,0-1.93-3-1.93-3,0-.1,3.47,2.27,3.93,3.77,6.56a1.52,1.52,0,0,0,2.74-.36l1.25-2.55-2.8-.76.41,4.74a1.5,1.5,0,0,0,3,0A29.81,29.81,0,0,1,14,13l-3-.4.57,5.13a1.5,1.5,0,0,0,3,0h0l.75-7.07h-3a77.76,77.76,0,0,0,.41,9.57c.16,1.52,2.69,2.22,3,.4L16.91,12l-3-.4,1.22,12.86c.15,1.55,2.61,2.19,3,.4l2.7-14.12h-2.9l2.3,10.74c.36,1.67,3,1.27,3-.4V1.5h-3l.12,24.58a1.5,1.5,0,1,0,3,0Z"/></g></g></g></g></svg>