<svg xmlns="http://www.w3.org/2000/svg" width="72.81" height="36.08" viewBox="0 0 72.81 36.08"><title>arrow-9</title><g id="Layer_2" data-name="Layer 2"><g id="arrow_09" data-name="arrow 09"><path d="M71.36,14.62A218.3,218.3,0,0,0,50.5.23c-1.66-1-3.16,1.59-1.51,2.59A211.8,211.8,0,0,1,69.24,16.74c1.51,1.17,3.64-.94,2.12-2.12Z"/><path d="M70.19,16.29q-10.91,9-22.63,16.94c-1.59,1.08-.09,3.68,1.51,2.59q12-8.14,23.24-17.41c1.49-1.23-.64-3.34-2.12-2.12Z"/><path d="M48,7.87,4,6.11C2.1,6,2.11,9,4,9.11l44,1.76c1.93.08,1.93-2.92,0-3Z"/><path d="M48.79,26l-47.34.17a1.5,1.5,0,0,0,0,3L48.79,29a1.5,1.5,0,0,0,0-3Z"/><path d="M2.18,6.91.61,26.56c-.15,1.92,2.85,1.91,3,0L5.18,6.91c.15-1.92-2.85-1.91-3,0Z"/><path d="M48.32,3.14l-.45,7.33c-.12,1.93,2.88,1.92,3,0l.45-7.33c.12-1.93-2.88-1.92-3,0Z"/><path d="M47.68,27.14l-.37,5.66c-.13,1.93,2.88,1.92,3,0l.37-5.66c.13-1.93-2.88-1.92-3,0Z"/></g></g></svg>