<svg xmlns="http://www.w3.org/2000/svg" width="71.82" height="34.73" viewBox="0 0 71.82 34.73"><title>arrow-5</title><g id="Layer_2" data-name="Layer 2"><g id="arrow_05" data-name="arrow 05"><path d="M67,10.85A89.18,89.18,0,0,0,40,0c-1.39-.31-2.62,1.44-1.46,2.51,8.74,8,21.53,7.26,31,13.92V13.87A300.06,300.06,0,0,1,34.9,32L37,34l.71-1.58c.79-1.75-1.79-3.27-2.59-1.51l-.71,1.58a1.51,1.51,0,0,0,2.05,2.05A300.06,300.06,0,0,0,71.1,16.46a1.52,1.52,0,0,0,0-2.59C61.85,7.38,49.12,8.19,40.68.42L39.22,2.93A86.55,86.55,0,0,1,65.44,13.44,1.5,1.5,0,0,0,67,10.85Z"/><path d="M66.74,13.43c-18.21,2.51-36.62,1.92-54.92,1-2-.1-1.87,2.78,0,3a235.71,235.71,0,0,0,56.39-.19c1.87-.23,2-3.15,0-3A425.35,425.35,0,0,1,1.44,14c-1.92-.16-1.91,2.84,0,3a425.35,425.35,0,0,0,66.77.2v-3a235.71,235.71,0,0,1-56.39.19v3c18.6,1,37.22,1.46,55.72-1.08,1.9-.26,1.09-3.15-.8-2.89Z"/></g></g></svg>