<svg xmlns="http://www.w3.org/2000/svg" width="71.82" height="34.76" viewBox="0 0 71.82 34.76"><title>arrow-left-5</title><g id="Layer_2" data-name="Layer 2"><g id="Layer_1-2" data-name="Layer 1"><g id="Layer_2-2" data-name="Layer 2"><g id="arrow_05" data-name="arrow 05"><path d="M4.82,23.88a89.18,89.18,0,0,0,27,10.85,1.51,1.51,0,0,0,1.46-2.51c-8.74-8-21.53-7.26-31-13.92v2.56A300.06,300.06,0,0,1,36.92,2.73l-2.1-2-.71,1.58c-.79,1.75,1.79,3.27,2.59,1.51l.71-1.58a1.51,1.51,0,0,0-2-2A300.06,300.06,0,0,0,.72,18.27a1.52,1.52,0,0,0,0,2.59c9.25,6.49,22,5.68,30.42,13.45L32.6,31.8A86.55,86.55,0,0,1,6.38,21.29a1.51,1.51,0,0,0-1.56,2.59Z"/><path d="M5.08,21.3c18.21-2.51,36.62-1.92,54.92-1,2,.1,1.87-2.78,0-3a235.71,235.71,0,0,0-56.39.19c-1.87.23-2,3.15,0,3a425.35,425.35,0,0,1,66.77.24c1.92.16,1.91-2.84,0-3a425.35,425.35,0,0,0-66.77-.2v3A235.71,235.71,0,0,1,60,20.34v-3c-18.6-1-37.22-1.46-55.72,1.08-1.9.26-1.09,3.15.8,2.89Z"/></g></g></g></g></svg>