<svg xmlns="http://www.w3.org/2000/svg" width="60.61" height="28.8" viewBox="0 0 60.61 28.8"><title>arrow-left-6</title><g id="Layer_2" data-name="Layer 2"><g id="Layer_1-2" data-name="Layer 1"><g id="Layer_2-2" data-name="Layer 2"><g id="arrow_06" data-name="arrow 06"><path d="M57.42,19c-10.09.14-20.19.23-30.28.38a1.52,1.52,0,0,0-1.5,1.5v6.45L27.9,26a172.19,172.19,0,0,0-26-11.5l.36,2.74L23,3.43C24.56,2.37,23.1-.2,21.48.8L.71,14.67a1.52,1.52,0,0,0,.36,2.74A167.42,167.42,0,0,1,26.4,28.61a1.52,1.52,0,0,0,2.26-1.3V20.86l-1.5,1.5c10.09-.14,20.19-.23,30.28-.38a1.5,1.5,0,0,0,0-3Z"/><path d="M26.56,9.25A13.74,13.74,0,0,0,23.45.52c-1.2-1.51-3.31.63-2.12,2.12a10.45,10.45,0,0,1,2.23,6.61,1.5,1.5,0,0,0,3,0Z"/><path d="M60.56,19.85a40.76,40.76,0,0,1,0-12.77,1.53,1.53,0,0,0-1.45-1.9,304.24,304.24,0,0,0-33,1.07c-1.91.17-1.93,3.17,0,3a304.24,304.24,0,0,1,33-1.07l-1.45-1.9a45.88,45.88,0,0,0,0,14.37c.3,1.9,3.19,1.09,2.89-.8Z"/></g></g></g></g></svg>