<svg xmlns="http://www.w3.org/2000/svg" width="65.47" height="23.77" viewBox="0 0 65.47 23.77"><title>arrow-4</title><g id="Layer_2" data-name="Layer 2"><g id="arrow_04" data-name="arrow 04"><path d="M64.57,9.58,44.11.17A1.5,1.5,0,0,0,42.6,2.76,94,94,0,0,0,62.34,12.7c1.82.66,2.6-2.23.8-2.89a90.61,90.61,0,0,1-19-9.64L42.6,2.76l20.46,9.41c1.74.8,3.27-1.78,1.51-2.59Z"/><path d="M61.85,9.26,44.13,21c-1.6,1.06-.16,3.58,1.51,2.59L64.75,12.26a1.5,1.5,0,0,0-1.51-2.59L44.13,21l1.51,2.59,17.72-11.7c1.6-1.06.1-3.66-1.51-2.59Z"/><path d="M61.8,9.42,1.45,8.12c-1.93,0-1.93,3,0,3l59.41,1.51v-3A509.49,509.49,0,0,0,7.31,12.76c-1.9.21-1.92,3.21,0,3a509.49,509.49,0,0,1,53.55-3.13,1.5,1.5,0,0,0,0-3L1.45,8.12v3L61.8,12.42c1.93,0,1.93-3,0-3Z"/></g></g></svg>