<svg xmlns="http://www.w3.org/2000/svg" width="76.81" height="19.81" viewBox="0 0 76.81 19.81"><title>arrow-left-3</title><g id="Layer_2" data-name="Layer 2"><g id="Layer_1-2" data-name="Layer 1"><g id="Layer_2-2" data-name="Layer 2"><g id="arrow_03" data-name="arrow 03"><path d="M71.38,9.4,7.47,7.69c-1.93-.05-1.93,2.93,0,3q33.94,1.22,67.9,0c1.92-.07,1.93-3.07,0-3q-34,1.24-67.91,0v3L71.38,12.4C73.31,12.45,73.31,9.45,71.38,9.4Z"/><path d="M1.91,10.56l22.38,9.13c1.78.73,2.53-2.17.79-2.88L2.71,7.68C.92,7,.15,9.85,1.91,10.57Z"/><path d="M1.82,11.08,25,3c1.81-.63,1-3.53-.8-2.89L1,8.19C-.79,8.82,0,11.72,1.82,11.08Z"/></g></g></g></g></svg>