<svg xmlns="http://www.w3.org/2000/svg" width="56.25" height="30.73" viewBox="0 0 56.25 30.73"><title>arrow-7</title><g id="Layer_2" data-name="Layer 2"><g id="arrow_07" data-name="arrow 07"><path d="M1,11.62,0,22c-.19,1.92,2.82,1.91,3,0L4,11.62c.19-1.92-2.82-1.91-3,0Z"/><path d="M2.15,12.08,39.85,10a1.53,1.53,0,0,0,1.45-1.1l1.53-7-2.51.66,12.47,16c1.18,1.52,3.29-.61,2.12-2.12L42.44.45a1.51,1.51,0,0,0-2.51.66l-1.53,7L39.85,7,2.15,9.08c-1.92.11-1.93,3.11,0,3Z"/><path d="M54.11,17l-11,8.39c-1.51,1.16,0,3.77,1.51,2.59l11-8.39c1.51-1.16,0-3.77-1.51-2.59Z"/><path d="M44,24.84l-4.61,2.76a1.5,1.5,0,0,0,1.51,2.59l4.61-2.76A1.5,1.5,0,0,0,44,24.84Z"/><path d="M37.67,24.62l-.33,4.67c-.14,1.93,2.86,1.92,3,0l.33-4.67c.14-1.93-2.86-1.92-3,0Z"/><path d="M1.51,25.21l29-1c1.93-.07,1.93-3.07,0-3l-29,1c-1.93.07-1.93,3.07,0,3Z"/><path d="M26.51,24.51l13.33-.66c1.92-.09,1.93-3.1,0-3l-13.33.66c-1.92.09-1.93,3.1,0,3Z"/></g></g></svg>