<?xml version="1.0" encoding="utf-8"?>
<!-- Generator: Adobe Illustrator 15.0.0, SVG Export Plug-In . SVG Version: 6.00 Build 0)  -->
<!DOCTYPE svg PUBLIC "-//W3C//DTD SVG 1.1//EN" "http://www.w3.org/Graphics/SVG/1.1/DTD/svg11.dtd">
<svg version="1.1" id="Layer_1" xmlns="http://www.w3.org/2000/svg" xmlns:xlink="http://www.w3.org/1999/xlink" x="0px" y="0px"
	 width="74.5px" height="35.9px" viewBox="0 0 74.5 35.9" enable-background="new 0 0 74.5 35.9" xml:space="preserve">
<g>
	<g>
		<path d="M73,18.6c-11.7,0-23.3,0.7-35,0.8c-5.7,0-11.5-0.1-17.2-0.7c-6.1-0.7-12.1-1.8-18.3-1.6c-1.9,0.1-1.9,3.1,0,3
			c5.6-0.2,11,0.6,16.5,1.3c5.7,0.8,11.4,0.9,17.1,0.9c12.3,0.1,24.6-0.8,37-0.8C74.9,21.6,74.9,18.6,73,18.6L73,18.6z"/>
	</g>
</g>
<g>
	<g>
		<path d="M0.4,19.7c2.4,2.7,5.1,4.9,7.9,7.2c3.2,2.6,6.8,4.7,9,8.2c1,1.6,3.6,0.1,2.6-1.5c-1.9-3-4.4-5-7.3-7.1
			C9,24,5.5,20.9,2.5,17.6C1.2,16.1-0.9,18.3,0.4,19.7L0.4,19.7z"/>
	</g>
</g>
<g>
	<g>
		<path d="M2.5,17.8c2.7-2.4,5-5.2,7.4-8c2.4-2.7,5.7-6.9,9.7-6.9c1.9,0,1.9-3,0-3C11.2-0.1,6,10.9,0.4,15.7
			C-1.1,16.9,1.1,19,2.5,17.8L2.5,17.8z"/>
	</g>
</g>
</svg>
