<svg xmlns="http://www.w3.org/2000/svg" width="72.87" height="36.08" viewBox="0 0 72.87 36.08"><title>arrow-left-9</title><g id="Layer_2" data-name="Layer 2"><g id="Layer_1-2" data-name="Layer 1"><g id="Layer_2-2" data-name="Layer 2"><g id="arrow_09" data-name="arrow 09"><path d="M1.46,21.46A218.3,218.3,0,0,0,22.32,35.85a1.5,1.5,0,0,0,1.51-2.59A211.8,211.8,0,0,1,3.58,19.34C2.07,18.17-.06,20.28,1.46,21.46Z"/><path d="M2.63,19.79q10.91-9,22.63-16.94c1.59-1.08.09-3.68-1.51-2.59Q11.75,8.4.51,17.67C-1,18.9,1.15,21,2.63,19.79Z"/><path d="M24.82,28.21l44,1.76c1.9.11,1.89-2.89,0-3l-44-1.76C22.89,25.13,22.89,28.13,24.82,28.21Z"/><path d="M24,10.08l47.34-.17a1.5,1.5,0,0,0,0-3L24,7.08a1.5,1.5,0,1,0,0,3Z"/><path d="M70.64,29.17,72.21,9.52c.15-1.92-2.85-1.91-3,0L67.64,29.17C67.49,31.09,70.49,31.08,70.64,29.17Z"/><path d="M24.5,32.94l.45-7.33c.12-1.93-2.88-1.92-3,0l-.45,7.33C21.38,34.87,24.38,34.86,24.5,32.94Z"/><path d="M25.14,8.94l.37-5.66c.13-1.93-2.88-1.92-3,0l-.37,5.66C22,10.87,25,10.86,25.14,8.94Z"/></g></g></g></g></svg>