<svg xmlns="http://www.w3.org/2000/svg" width="76.78" height="19.82" viewBox="0 0 76.78 19.82"><title>arrow-3</title><g id="Layer_2" data-name="Layer 2"><g id="arrow_03" data-name="arrow 03"><path d="M5.44,10.41l63.91,1.71c1.93.05,1.93-2.93,0-3Q35.41,7.9,1.45,9.14c-1.92.07-1.93,3.07,0,3q33.95-1.24,67.91,0v-3L5.44,7.41c-1.93-.05-1.93,2.95,0,3Z"/><path d="M74.91,9.25,52.53.12C50.75-.61,50,2.29,51.74,3l22.37,9.13c1.79.73,2.56-2.17.8-2.89Z"/><path d="M75,8.73l-23.21,8.1c-1.81.63-1,3.53.8,2.89l23.21-8.1c1.81-.63,1-3.53-.8-2.89Z"/></g></g></svg>