<svg xmlns="http://www.w3.org/2000/svg" width="77.64" height="23.77" viewBox="0 0 77.64 23.77"><title>arrow-2</title><g id="Layer_2" data-name="Layer 2"><g id="arrow_02" data-name="arrow 02"><path d="M4,11.54l53.44-1.08v-3l-56,1.31a1.5,1.5,0,0,0,0,3L71.36,13c1.93,0,1.93-3,0-3L1.45,8.78v3l56-1.31c1.93,0,1.94-3,0-3L4,8.54c-1.93,0-1.93,3,0,3Z"/><path d="M76.74,9.58,56.28.17a1.5,1.5,0,0,0-1.51,2.59A94,94,0,0,0,74.51,12.7c1.82.66,2.6-2.23.8-2.89a90.61,90.61,0,0,1-19-9.64L54.77,2.76l20.46,9.41c1.74.8,3.27-1.78,1.51-2.59Z"/><path d="M74,9.26,56.3,21c-1.6,1.06-.16,3.58,1.51,2.59L76.92,12.26a1.5,1.5,0,0,0-1.51-2.59L56.3,21l1.51,2.59,17.72-11.7c1.6-1.06.1-3.66-1.51-2.59Z"/></g></g></svg>