<svg xmlns="http://www.w3.org/2000/svg" width="77.68" height="23.82" viewBox="0 0 77.68 23.82"><title>arrow-left-2</title><g id="Layer_2" data-name="Layer 2"><g id="Layer_1-2" data-name="Layer 1"><g id="Layer_2-2" data-name="Layer 2"><g id="arrow_02" data-name="arrow 02"><path d="M73.62,12.28,20.18,13.36v3l56-1.31a1.5,1.5,0,0,0,0-3L6.26,10.82a1.5,1.5,0,0,0,0,3L76.17,15V12l-56,1.31a1.5,1.5,0,0,0,0,3l53.45-1.07A1.5,1.5,0,0,0,73.62,12.28Z"/><path d="M.88,14.24l20.46,9.41a1.5,1.5,0,0,0,1.51-2.59A94,94,0,0,0,3.11,11.12c-1.82-.66-2.6,2.23-.8,2.89a90.61,90.61,0,0,1,19,9.64l1.54-2.59L2.39,11.65C.65,10.85-.88,13.43.88,14.24Z"/><path d="M3.62,14.56,21.32,2.82c1.6-1.06.16-3.58-1.51-2.59L.7,11.56a1.5,1.5,0,0,0,1.51,2.59L21.32,2.82,19.81.23,2.09,11.93C.49,13,2,15.59,3.6,14.52Z"/></g></g></g></g></svg>