<svg xmlns="http://www.w3.org/2000/svg" width="65.45" height="23.82" viewBox="0 0 65.45 23.82"><title>arrow-left-4</title><g id="Layer_2" data-name="Layer 2"><g id="Layer_1-2" data-name="Layer 1"><g id="Layer_2-2" data-name="Layer 2"><g id="arrow_04" data-name="arrow 04"><path d="M.88,14.24l20.46,9.41a1.5,1.5,0,0,0,1.51-2.59A94,94,0,0,0,3.11,11.12c-1.82-.66-2.6,2.23-.8,2.89a90.61,90.61,0,0,1,19,9.64l1.54-2.59L2.39,11.65C.65,10.85-.88,13.43.88,14.24Z"/><path d="M3.6,14.56,21.32,2.82c1.6-1.06.16-3.58-1.51-2.59L.7,11.56a1.5,1.5,0,0,0,1.51,2.59L21.32,2.82,19.81.23,2.09,11.93C.49,13,2,15.59,3.6,14.52Z"/><path d="M3.65,14.4,64,15.7a1.5,1.5,0,0,0,0-3L4.59,11.19v3a509.49,509.49,0,0,0,53.55-3.13c1.9-.21,1.92-3.21,0-3A509.49,509.49,0,0,1,4.59,11.19a1.5,1.5,0,0,0,0,3L64,15.7v-3L3.65,11.4A1.5,1.5,0,0,0,3.65,14.4Z"/></g></g></g></g></svg>