<?xml version="1.0" encoding="utf-8"?>
<!-- Generator: Adobe Illustrator 15.0.0, SVG Export Plug-In . SVG Version: 6.00 Build 0)  -->
<!DOCTYPE svg PUBLIC "-//W3C//DTD SVG 1.1//EN" "http://www.w3.org/Graphics/SVG/1.1/DTD/svg11.dtd">
<svg version="1.1" id="Layer_1" xmlns="http://www.w3.org/2000/svg" xmlns:xlink="http://www.w3.org/1999/xlink" x="0px" y="0px"
	 width="74.5px" height="35.9px" viewBox="0 0 74.5 35.9" enable-background="new 0 0 74.5 35.9" xml:space="preserve">
<g>
	<g>
		<path d="M1.5,17.3c11.7,0,23.3-0.7,35-0.8c5.7,0,11.5,0.1,17.2,0.7c6.1,0.7,12.1,1.8,18.3,1.6c1.9-0.1,1.9-3.1,0-3
			c-5.6,0.2-11-0.6-16.5-1.3c-5.7-0.8-11.4-0.9-17.1-0.9c-12.3-0.1-24.6,0.8-37,0.8C-0.5,14.3-0.5,17.3,1.5,17.3L1.5,17.3z"/>
	</g>
</g>
<g>
	<g>
		<path d="M74,16.1c-2.4-2.7-5.1-4.9-7.9-7.2c-3.2-2.6-6.8-4.7-9-8.2c-1-1.6-3.6-0.1-2.6,1.5c1.9,3,4.4,5,7.3,7.1
			c3.6,2.6,7.1,5.7,10.1,9C73.2,19.7,75.3,17.6,74,16.1L74,16.1z"/>
	</g>
</g>
<g>
	<g>
		<path d="M71.9,18c-2.8,2.4-5,5.2-7.4,8c-2.4,2.7-5.7,6.9-9.7,6.9c-1.9,0-1.9,3,0,3c8.4,0.1,13.6-10.9,19.2-15.7
			C75.5,18.9,73.4,16.8,71.9,18L71.9,18z"/>
	</g>
</g>
</svg>
