<svg xmlns="http://www.w3.org/2000/svg" width="11.9" height="9.64" viewBox="0 0 11.9 9.64"><title>dot-2</title><path d="M4.21 1.51L.44 4.91a1.52 1.52 0 0 0 .3 2.36c3.78 2.89 9.68-.34 9.69-5a1.52 1.52 0 0 0-1.1-1.4A8.36 8.36 0 0 0 .22 4.66a1.51 1.51 0 0 0 .9 2.2 6 6 0 0 0 7.36-5.29A1.5 1.5 0 0 0 7 .07a5 5 0 0 0-3.63 7.57C5.76 11.14 11.14 8.7 11.6 5 12.1.92 7.08-.83 4.1 1.19.44 3.67 2.84 9.08 6.73 9.6c4.14.55 6.71-4.81 4.14-7.92S2.6 0 2.25 4.19c-.38 4.52 5 7.29 8.21 3.91A4.52 4.52 0 0 0 6.54.43C1.62 1 1.8 8 6.35 9.09a4.34 4.34 0 0 0 5-3.35A4.44 4.44 0 0 0 7.8.51C5.92.15 5.11 3 7 3.4c1.18.23 2.3 1.79.8 2.6a1.41 1.41 0 0 1-1.93-1c-.61-2 2.67-2.1 3-.42.42 2.42-3.74 2.83-3.65.03.07-2 3.39-2.23 3.68-.21a1.78 1.78 0 0 1-3.36 1.14C4.61 3.93 6.61 2.69 8 3.51c1.72 1-.61 3.62-2 2.66-1-.75-.28-3 .93-3.1l-1.5-1.5A2.93 2.93 0 0 1 1.92 4l.9 2.2a5.27 5.27 0 0 1 5.71-2.44l-1.1-1.45c0 2.55-3.26 3.83-5.17 2.37L2.56 7l3.77-3.37c1.43-1.3-.69-3.42-2.12-2.12z" data-name="dot 02"/></svg>