<svg xmlns="http://www.w3.org/2000/svg" width="13.37" height="11.64" viewBox="0 0 13.37 11.64"><title>dot-8</title><path d="M6.88 7.57l3.93.77a1.58 1.58 0 0 0 1.69-.69c2.08-2.83-1.79-5.81-4.23-3.46A1.55 1.55 0 0 0 8 6c1.54 3.3 6.71 1 5-2.34s-6.21-.49-4.76 2.78l2.36-1.82C6.72 1.6 2 7 5.69 10.42c4.13 3.73 9.13-1.91 7.2-6.28S4.68-1.56 1.44 2.08c-3 3.42-1 9.44 3.83 9.34 5.51-.11 7.08-7.46 2.3-10a1.53 1.53 0 0 0-1.82.23L4.68 2.87C3.42 4.32 5.53 6.45 6.81 5l1.07-1.23L6.06 4C8 5 8 8.13 5.49 8.42c-2.78.31-3.23-3.32-1.37-4.74a4.13 4.13 0 0 1 6.08 1.81c.41 1.1 0 3.13-1.57 3.11-.44 0-1.22-.4-1.32-.91s.57-1.4 1.16-.95a1.51 1.51 0 0 0 2.36-1.82l-.19-.43-.24 1.83-.48-.18 1.69-.69-3.93-.77C5.8 4.3 5 7.2 6.88 7.57z" data-name="dot 08"/></svg>