<?xml version="1.0" standalone="no"?>
<!DOCTYPE svg PUBLIC "-//W3C//DTD SVG 20010904//EN"
 "http://www.w3.org/TR/2001/REC-SVG-20010904/DTD/svg10.dtd">
<svg version="1.0" xmlns="http://www.w3.org/2000/svg"
 width="16.000000pt" height="16.000000pt" viewBox="0 0 16.000000 16.000000"
 preserveAspectRatio="xMidYMid meet">
<metadata>
Created by potrace 1.11, written by Peter Selinger 2001-2013
</metadata>
<g transform="translate(0.000000,16.000000) scale(0.006154,-0.006154)"
fill="#000000" stroke="none">
<path d="M1303 2575 c-28 -8 -94 -21 -145 -29 -120 -20 -168 -34 -168 -49 0
-7 -26 -27 -58 -45 -31 -18 -70 -41 -86 -50 -43 -26 -147 -137 -178 -190 -16
-26 -31 -62 -34 -81 -4 -19 -21 -66 -39 -105 -97 -213 -164 -573 -155 -831 5
-129 3 -144 -16 -185 -30 -62 -42 -109 -54 -215 -12 -110 4 -303 28 -322 10
-9 18 -42 23 -105 8 -106 33 -228 51 -258 19 -31 40 -26 32 8 l-7 27 21 -25
c29 -34 27 -17 -10 92 -36 109 -47 225 -28 321 14 75 191 443 198 413 2 -11
-3 -23 -12 -28 -9 -5 -16 -17 -16 -27 0 -10 -25 -93 -55 -186 -84 -255 -92
-380 -34 -515 22 -52 49 -67 49 -27 0 12 -9 46 -20 75 -15 40 -20 74 -19 150
2 118 16 193 18 92 0 -37 10 -91 21 -122 11 -31 17 -63 15 -71 -3 -7 6 -26 20
-41 14 -15 34 -45 45 -67 20 -39 40 -52 40 -25 0 7 -11 34 -24 59 -21 39 -22
46 -9 51 10 4 13 14 9 31 -10 40 18 31 68 -22 25 -26 48 -44 51 -41 4 3 -9 37
-28 74 -19 38 -37 80 -41 94 -4 14 5 1 19 -27 15 -29 31 -53 37 -53 6 0 7 7 4
16 -3 9 -9 28 -12 42 l-6 27 19 -26 c10 -15 30 -45 46 -68 15 -22 33 -41 40
-41 7 0 31 -18 52 -41 22 -22 58 -51 80 -64 109 -65 286 -98 388 -75 107 26
231 94 315 173 41 40 58 85 27 73 -8 -3 -15 -1 -15 3 0 5 6 11 14 14 10 4 18
-5 25 -25 10 -27 8 -34 -18 -67 -78 -96 -173 -166 -254 -186 -27 -7 -43 -22
-34 -31 9 -9 114 19 153 42 23 13 73 57 112 99 l70 75 15 -33 c8 -17 18 -53
22 -78 9 -58 20 -78 35 -63 12 12 -2 142 -21 191 -7 20 -5 23 16 23 30 0 33
16 6 25 -23 7 -46 33 -38 41 3 4 20 -4 38 -16 34 -25 33 -17 12 -162 -5 -40
14 -56 24 -19 3 11 11 17 18 15 15 -6 27 33 18 64 -7 30 -1 28 53 -14 81 -61
82 -6 2 65 -28 25 -30 30 -20 57 l10 29 1 -32 c1 -40 22 -44 52 -10 45 49 119
145 119 154 0 5 11 20 25 33 38 36 46 77 44 222 -2 131 -3 134 -42 222 l-39
88 12 162 c8 88 14 213 14 278 1 93 4 114 14 106 22 -19 21 -5 -4 86 -32 112
-129 318 -186 393 -24 32 -52 71 -61 86 l-18 28 26 -7 c38 -9 30 9 -22 52 -26
22 -61 55 -77 74 -182 216 -378 305 -563 255z m221 -41 c26 -9 45 -18 43 -20
-2 -3 -17 0 -33 6 -16 6 -54 15 -84 19 -51 8 -52 9 -14 10 22 0 62 -6 88 -15z
m-148 -26 c71 -14 147 -56 274 -150 103 -77 121 -94 150 -150 29 -53 25 -57
-10 -10 -64 89 -186 163 -370 227 -52 19 -119 43 -148 54 -61 24 -76 26 -69 8
4 -10 -13 -13 -75 -11 -43 1 -82 5 -85 8 -4 3 0 6 8 6 8 1 52 7 99 14 110 18
153 19 226 4z m-376 -43 c0 -3 -21 -27 -47 -54 -59 -59 -130 -195 -144 -276
-5 -33 -13 -67 -16 -75 -9 -23 -11 -36 -22 -167 -25 -275 -66 -408 -162 -530
-21 -26 -51 -65 -66 -86 -29 -42 -36 -38 -48 25 -6 33 -5 36 12 32 17 -5 29
13 78 113 64 132 95 216 120 325 22 102 53 348 44 354 -15 9 -16 4 -54 -185
-9 -46 -29 -119 -45 -163 -16 -43 -24 -78 -19 -78 5 0 9 5 9 12 0 6 2 9 5 6
10 -9 -26 -107 -79 -219 -72 -149 -79 -158 -73 -92 3 44 10 59 44 96 50 54 65
81 57 101 -4 11 -15 3 -41 -32 -20 -26 -39 -51 -44 -56 -13 -14 18 108 68 267
46 144 60 164 62 85 1 -32 15 -37 26 -10 4 9 11 64 15 122 6 92 13 118 50 208
39 94 49 108 108 160 53 46 148 119 160 121 1 1 2 -1 2 -4z m695 -53 c79 -45
120 -83 160 -147 118 -190 134 -226 112 -262 -4 -7 -3 -14 3 -18 6 -4 10 -69
9 -168 0 -123 -3 -156 -11 -137 -5 14 -10 68 -9 120 1 119 -27 228 -97 373
-59 121 -78 141 -288 285 -17 11 -16 12 11 7 17 -4 66 -27 110 -53z m-462 12
c27 -9 47 -18 45 -19 -2 -2 -36 4 -76 14 -115 27 -151 14 -120 -42 6 -12 11
-37 9 -55 -3 -43 35 -107 99 -165 49 -44 134 -87 147 -74 9 10 -17 37 -56 57
-59 30 -115 84 -146 141 l-29 54 50 -38 c110 -84 299 -171 357 -165 49 5 35
20 -40 44 -67 20 -201 84 -256 122 -46 31 -120 106 -109 110 10 3 218 -58 270
-79 13 -5 74 -42 137 -83 62 -41 115 -72 118 -70 2 2 12 -5 22 -16 10 -11 16
-21 14 -23 -2 -2 -51 -11 -109 -20 -58 -10 -122 -27 -143 -38 -49 -25 -149
-51 -158 -41 -69 80 -121 148 -146 192 -35 61 -63 148 -63 193 l0 30 68 -6
c37 -4 89 -14 115 -23z m327 -92 c83 -37 172 -106 164 -127 -4 -9 5 -33 20
-55 l25 -39 -29 10 c-16 6 -32 19 -35 29 -13 41 -135 139 -228 184 -50 25
-103 54 -117 65 -21 17 -13 16 55 -9 44 -15 109 -41 145 -58z m-583 21 c-25
-70 -30 -243 -9 -265 10 -10 14 -10 21 0 6 11 10 10 15 -4 10 -27 0 -28 -39
-4 -24 15 -44 20 -60 16 -25 -6 -25 -5 -25 56 1 74 30 155 79 217 18 23 34 41
35 41 2 0 -6 -26 -17 -57z m116 -160 c9 -18 38 -58 63 -89 48 -59 45 -61 -18
-11 -28 23 -45 49 -68 109 -32 84 -41 131 -12 63 10 -22 25 -55 35 -72z m19
-125 c40 -35 42 -37 18 -38 -64 0 -81 20 -100 119 -16 85 -11 91 15 21 18 -48
35 -75 67 -102z m-262 -2 c-7 -7 -10 6 -9 40 l1 49 9 -39 c6 -26 6 -43 -1 -50z
m147 52 c-3 -8 -6 -5 -6 6 -1 11 2 17 5 13 3 -3 4 -12 1 -19z m866 -55 c16
-41 11 -49 -21 -29 -9 5 -10 12 -3 20 6 7 7 23 4 37 -8 34 1 21 20 -28z m-130
-12 c23 -15 48 -26 55 -24 29 11 45 -67 52 -254 6 -179 7 -183 38 -244 30 -58
32 -69 32 -163 0 -124 -31 -262 -95 -421 -24 -60 -46 -127 -48 -147 -6 -56
-63 -141 -148 -221 -110 -104 -142 -125 -205 -133 -144 -18 -260 22 -388 133
-47 41 -93 88 -102 106 -10 17 -41 61 -69 97 l-53 65 -26 155 c-52 316 -55
375 -17 461 22 51 51 242 51 341 0 37 5 70 10 73 6 3 10 32 10 64 0 56 2 60
41 95 22 21 44 36 47 34 4 -2 32 -15 62 -30 42 -21 84 -30 180 -41 69 -8 130
-11 135 -7 6 5 33 11 60 15 28 4 78 16 112 27 35 11 77 18 95 17 36 -3 50 11
21 22 -10 5 9 8 45 8 54 1 70 -3 105 -28z m333 -223 c15 -100 26 -133 49 -153
21 -17 35 -75 34 -134 l-2 -56 -8 68 c-4 38 -10 72 -14 75 -18 19 -25 -34 -19
-156 5 -103 3 -167 -12 -278 -18 -141 -19 -144 -31 -108 -7 21 -10 40 -5 43
13 9 31 284 25 386 -2 50 -11 126 -19 170 -8 44 -19 122 -24 174 -6 52 -12
104 -15 115 -3 12 2 6 11 -12 8 -19 22 -79 30 -134z m-179 60 c-3 -7 -5 -2 -5
12 0 14 2 19 5 13 2 -7 2 -19 0 -25z m10 -145 c-2 -21 -4 -4 -4 37 0 41 2 58
4 38 2 -21 2 -55 0 -75z m252 2 c1 -5 -8 4 -19 20 -11 17 -20 39 -19 50 0 14
6 7 19 -20 10 -22 19 -44 19 -50z m-110 -127 c1 -14 -4 -28 -10 -30 -15 -5
-28 -78 -30 -168 -1 -53 -3 -68 -9 -50 -13 41 -11 138 4 193 8 29 18 70 22 92
6 37 8 38 14 15 5 -14 8 -37 9 -52z m8 -245 c-2 -38 -3 -7 -3 67 0 74 1 105 3
68 2 -38 2 -98 0 -135z m-1342 -50 c-7 -17 -8 -17 -15 2 -5 11 -9 27 -9 35 -1
12 2 11 15 -2 11 -11 14 -23 9 -35z m1262 -30 c-3 -10 -5 -4 -5 12 0 17 2 24
5 18 2 -7 2 -21 0 -30z m-1303 -75 c-7 -48 -12 -56 -96 -138 -117 -115 -116
-107 6 52 26 34 58 80 70 100 11 21 22 38 24 38 1 0 0 -23 -4 -52z m1360 -142
c21 -63 40 -330 30 -426 l-8 -75 -7 115 c-4 85 -16 153 -43 260 -30 115 -36
156 -32 201 9 91 18 101 32 33 7 -34 19 -82 28 -108z m-1532 69 c3 -14 1 -28
-3 -31 -5 -3 -9 9 -9 25 0 38 6 40 12 6z m141 -138 c-61 -65 -122 -148 -157
-212 -15 -28 -24 -41 -22 -30 19 75 46 166 56 186 26 49 83 110 116 124 19 8
38 22 42 32 5 14 8 10 10 -15 3 -28 -4 -42 -45 -85z m1506 -23 c-6 -7 -6 -29
0 -55 15 -63 11 -83 -4 -24 -7 28 -13 86 -13 130 l0 80 13 -60 c8 -37 9 -64 4
-71z m-216 71 c5 -28 4 -34 -3 -20 -8 19 -14 73 -6 64 2 -2 6 -22 9 -44z
m-1252 -58 c-10 -9 -11 -8 -5 6 3 10 9 15 12 12 3 -3 0 -11 -7 -18z m62 -24
c4 -19 2 -33 -3 -33 -6 0 -10 17 -10 37 0 43 5 41 13 -4z m1164 -30 c-3 -10
-5 -4 -5 12 0 17 2 24 5 18 2 -7 2 -21 0 -30z m311 -102 c6 -85 -3 -76 -17 16
-6 39 -13 79 -17 90 -3 10 2 5 12 -11 9 -17 19 -59 22 -95z m-1625 32 c-15
-27 -42 -72 -60 -102 -18 -30 -33 -59 -33 -65 0 -5 -3 -7 -6 -4 -9 9 21 72 70
148 52 79 71 95 29 23z m132 -5 c-4 -24 -11 -47 -16 -52 -5 -6 -9 -31 -9 -57
0 -50 -17 -109 -31 -109 -17 0 -6 64 33 193 23 76 33 87 23 25z m1154 -110
c-5 -85 -5 -165 1 -210 5 -40 10 -85 10 -101 0 -27 0 -27 -25 -11 -23 15 -25
23 -25 83 0 37 5 94 11 126 8 43 8 60 0 63 -14 5 -6 68 16 139 10 29 18 51 19
50 2 -1 -2 -64 -7 -139z m-1435 93 c-4 -17 -9 -30 -11 -27 -3 2 -2 19 2 36 4
17 9 30 11 27 2 -2 1 -18 -2 -36z m1676 -84 c5 -90 7 -99 18 -77 l12 25 -5
-27 c-3 -16 -16 -52 -30 -80 l-24 -53 7 40 c4 22 6 96 4 164 -3 148 11 153 18
8z m-193 -9 c-2 -18 -4 -4 -4 32 0 36 2 50 4 33 2 -18 2 -48 0 -65z m81 -97
c3 -129 0 -166 -15 -215 -10 -33 -23 -61 -29 -63 -26 -9 -33 199 -9 287 8 30
15 83 15 118 0 60 1 63 18 46 14 -15 17 -41 20 -173z m-1192 53 c-13 -9 -7
-33 45 -180 79 -223 76 -262 -8 -95 -39 77 -63 137 -63 157 0 18 -8 40 -17 50
-19 18 -23 101 -9 159 l7 29 30 -54 c26 -47 28 -56 15 -66z m1351 94 c-3 -8
-6 -5 -6 6 -1 11 2 17 5 13 3 -3 4 -12 1 -19z m40 -98 c-6 -51 -53 -170 -67
-170 -5 0 5 31 21 68 15 38 31 87 35 110 9 59 18 52 11 -8z m-50 18 c-3 -8 -6
-5 -6 6 -1 11 2 17 5 13 3 -3 4 -12 1 -19z m-1290 -39 c12 -12 7 -39 -7 -39
-4 0 -10 11 -12 25 -6 27 1 32 19 14z m-124 -179 c8 -41 13 -77 12 -78 -2 -2
-17 40 -35 93 -25 80 -28 100 -18 112 14 17 13 20 41 -127z m154 118 c9 -12
27 -126 19 -117 -6 6 -46 113 -46 122 0 11 17 8 27 -5z m841 -85 c-22 -111
-24 -196 -3 -213 14 -12 13 -16 -12 -42 -33 -34 -147 -90 -263 -128 -79 -26
-91 -27 -175 -19 -134 12 -220 46 -297 117 -29 27 -35 61 -19 104 5 13 6 66 2
119 l-6 96 59 -53 c132 -120 311 -156 487 -98 83 28 169 90 169 122 0 15 57
82 70 82 3 0 -2 -39 -12 -87z m69 55 c-3 -7 -5 -2 -5 12 0 14 2 19 5 13 2 -7
2 -19 0 -25z m309 -105 c-8 -16 -21 -37 -30 -48 -15 -20 -15 -20 -16 2 0 21
37 72 53 73 4 0 1 -12 -7 -27z m-1437 -112 c7 -12 9 -26 5 -32 -9 -15 -30 37
-38 92 l-5 44 13 -41 c8 -23 19 -51 25 -63z"/>
<path d="M1635 1526 c-55 -18 -111 -38 -124 -45 -19 -10 -25 -10 -31 -1 -9 15
-30 4 -30 -16 0 -24 28 -28 70 -9 21 9 82 29 137 44 61 18 98 33 98 41 0 22
-15 20 -120 -14z"/>
<path d="M1794 1546 c-10 -8 -16 -18 -12 -22 10 -9 58 12 58 26 0 14 -23 12
-46 -4z"/>
<path d="M820 1533 c0 -16 144 -72 189 -74 l26 -1 -25 -8 c-55 -18 -138 -32
-149 -26 -18 12 -59 -23 -63 -55 -8 -51 41 -76 93 -48 14 7 24 7 33 0 7 -6 39
-17 72 -24 l59 -14 -54 -18 c-53 -17 -54 -17 -108 5 -45 18 -59 20 -79 11 -22
-10 -24 -15 -18 -48 19 -104 20 -104 168 -77 92 17 104 22 148 60 26 23 54 47
64 52 23 13 21 59 -5 83 -11 11 -21 29 -21 40 0 13 -11 25 -32 35 l-33 14 35
-5 c88 -12 102 -10 98 17 -4 26 -28 37 -28 13 0 -12 -5 -15 -17 -10 -10 3 -56
15 -103 25 -47 9 -110 25 -140 33 -85 24 -110 28 -110 20z m156 -148 c-1 -20
-5 -24 -21 -19 -28 9 -29 12 -15 29 19 23 38 18 36 -10z m154 -35 c0 -5 -9 -6
-19 -3 -12 3 -17 11 -14 19 4 11 9 12 19 3 8 -6 14 -15 14 -19z"/>
<path d="M1600 1448 c-32 -9 -115 -76 -105 -86 2 -2 0 -15 -5 -28 -9 -22 0
-40 13 -27 4 3 35 7 70 8 69 2 159 28 177 51 7 7 19 14 26 14 42 0 -9 47 -72
66 -53 16 -56 16 -104 2z m111 -47 l24 -19 -28 -13 c-31 -14 -32 -14 -41 24
-8 33 10 36 45 8z"/>
<path d="M1220 1286 c0 -63 4 -85 14 -89 17 -7 22 25 18 111 -3 45 -8 62 -18
62 -11 0 -14 -18 -14 -84z"/>
<path d="M1497 1043 c-4 -3 -2 -12 5 -20 8 -10 8 -17 0 -25 -7 -7 -12 -16 -12
-20 0 -14 37 -9 50 7 24 29 -18 84 -43 58z"/>
<path d="M1157 1033 c-13 -12 -7 -50 8 -63 12 -10 19 -10 28 -1 9 9 9 14 -2
20 -8 5 -11 16 -6 30 6 21 -12 30 -28 14z"/>
<path d="M1225 981 c-3 -6 10 -13 29 -16 19 -4 37 -13 40 -20 3 -8 21 -17 40
-20 27 -6 42 -2 65 14 16 12 36 21 44 21 9 0 19 5 22 10 10 16 -61 12 -75 -5
-17 -20 -38 -19 -83 5 -40 22 -72 26 -82 11z"/>
<path d="M1250 778 c-58 -9 -110 -26 -110 -37 0 -13 136 -41 195 -40 106 1
239 36 213 55 -39 30 -175 40 -298 22z m155 -18 c-3 -5 -34 -9 -68 -8 l-62 1
65 7 c36 4 66 7 68 8 2 1 0 -2 -3 -8z m-37 -37 c-15 -2 -42 -2 -60 0 -18 2 -6
4 27 4 33 0 48 -2 33 -4z"/>
</g>
</svg>
