<svg xmlns="http://www.w3.org/2000/svg" width="12" height="12.01" viewBox="0 0 12 12.01"><title>dot-9</title><g id="Layer_2" data-name="Layer 2"><g id="dot_09" data-name="dot 09"><path d="M3.13,3,.82,7.8a1.5,1.5,0,0,0,0,1.51,6.42,6.42,0,0,0,7.51,2.26,6.2,6.2,0,0,0,3.57-6.93C10.63-1.79.08-1.52,0,5.35c0,3,3.2,5.73,6.09,4.26C8.15,8.55,9.63,4,6.43,3.41A4.28,4.28,0,0,0,1.76,8.84c.89,2.64,4.49,3.84,6.64,1.95s2.11-6.41-1.35-6.57A6.54,6.54,0,0,0,.4,10.06a1.5,1.5,0,0,0,1.5,1.5A6.33,6.33,0,0,0,7.47,6.79C7.94,4.91,5,4.11,4.58,6A3.25,3.25,0,0,1,1.9,8.56l1.5,1.5A3.46,3.46,0,0,1,7.46,7.3l-.9-.69c.55.8.28,2.33-1,2.09A1.18,1.18,0,1,1,6,6.38l-.9-.69c.5.88-.54,1.52-1.32,1.12a1.76,1.76,0,0,1-.47-2.59,3.19,3.19,0,0,1,4.69-.57,3.25,3.25,0,0,1,.12,4.49A3.26,3.26,0,0,1,3.41,7.8V9.31L5.72,4.56C6.56,2.83,4,1.31,3.13,3Z"/></g></g></svg>