<svg xmlns="http://www.w3.org/2000/svg" width="13.56" height="12.95" viewBox="0 0 13.56 12.95"><title>dot-7</title><g id="Layer_2" data-name="Layer 2"><g id="dot_07" data-name="dot 07"><path d="M10.89,1.19A6.61,6.61,0,0,0,.46,6.68a6.53,6.53,0,0,0,9.75,5.39c3.86-2.32,3.71-8.76-.49-10.62S.57,3.16,1.63,7.73c1.38,5.94,9.16,6.06,11.75,1a1.53,1.53,0,0,0-.54-2.05A7.87,7.87,0,0,0,2.42,9a1.52,1.52,0,0,0,.23,1.82c2.73,3.25,8.2.61,7-3.6C8.75,4,3.45,4.05,3.18,7.55s5.58,4.71,6.44,1.09A4,4,0,0,0,7.3,4.37C5.06,3.28,2.69,4.43.73,5.57a1.52,1.52,0,0,0,0,2.59A7.14,7.14,0,0,0,11,5.64a1.54,1.54,0,0,0-.23-1.82A4.48,4.48,0,0,0,3.47,5.75c-.6,1.84,2.3,2.63,2.89.8a1.44,1.44,0,0,1,2.3-.6L8.42,4.12A4.15,4.15,0,0,1,2.24,5.57V8.16A6.77,6.77,0,0,1,5.15,6.93,1.43,1.43,0,0,1,6.6,7.6q.33.45-.08.28c-.19-.46,0,.37.23.09A1,1,0,0,1,5.9,9.31a1.27,1.27,0,0,1-1.13-.66L5,10.47a4.81,4.81,0,0,1,6.32-1.2l-.54-2.05A3.79,3.79,0,0,1,7.27,9.49,3.09,3.09,0,0,1,4.48,6.26C4.82,3,9.79,3.4,10,6.59S6.16,11.07,4.19,8.68C1.35,5.22,6.1,1.54,9.37,3.78c1.6,1.1,3.1-1.5,1.51-2.59Z"/></g></g></svg>