<svg xmlns="http://www.w3.org/2000/svg" width="13.71" height="12.23" viewBox="0 0 13.71 12.23"><title>dot-10</title><g id="Layer_2" data-name="Layer 2"><g id="dot_10" data-name="dot 10"><path d="M7.22,4.43,1.07,6.7A1.52,1.52,0,0,0,.72,9.44c2.51,1.64,5.38,3.33,8.5,2.63,2.21-.49,4.4-2.23,4.5-4.65A4.56,4.56,0,0,0,9.55,2.78,3.47,3.47,0,0,0,6.13,6.64c.39,5.13,7.63,4.05,7-.86-.32-2.56-2.68-2.9-4.85-2.62A9.63,9.63,0,0,0,1.57,7.33a1.5,1.5,0,0,0,.23,1.82c3,2.31,8.29,2.11,9.69-2C12.74,3.51,9.33-1.15,5.34.26,2,1.46.91,6.76,4,8.88c3.24,2.25,8.06-.77,7.69-4.61a1.52,1.52,0,0,0-1.5-1.5A5.2,5.2,0,0,0,5.23,8.9c.12.85,1.14,1.17,1.85,1l3.81-.68C12.79,8.94,12,6,10.1,6.38l-3.81.68,1.85,1a2.12,2.12,0,0,1,2-2.34l-1.5-1.5c.14,1.4-1.56,3.14-3,2.13C4.61,5.61,5.21,3.25,6.55,3c1.65-.29,2.67,2.18,2,3.42C7.68,8,5.2,8,3.93,7l.23,1.82A6.56,6.56,0,0,1,8.52,6.13c.53-.08,1.87-.35,1.6.5-.35,1.08-1.51,0-.75-.62.93-.71,1.42,1.24,1.08,1.9A2.91,2.91,0,0,1,8,9.21C5.9,9.39,3.93,8,2.23,6.85L1.87,9.59,8,7.32c1.8-.66,1-3.56-.8-2.89Z"/></g></g></svg>