<svg xmlns="http://www.w3.org/2000/svg" width="11.9" height="9.64" viewBox="0 0 11.9 9.64"><title>dot-2</title><g id="Layer_2" data-name="Layer 2"><g id="dot_02" data-name="dot 02"><path d="M4.21,1.51.44,4.91a1.52,1.52,0,0,0,.3,2.36c3.78,2.89,9.68-.34,9.69-5A1.52,1.52,0,0,0,9.33.87,8.36,8.36,0,0,0,.22,4.66a1.51,1.51,0,0,0,.9,2.2A6,6,0,0,0,8.48,1.57,1.5,1.5,0,0,0,7,.07,5,5,0,0,0,3.37,7.64C5.76,11.14,11.14,8.7,11.6,5,12.1.92,7.08-.83,4.1,1.19.44,3.67,2.84,9.08,6.73,9.6c4.14.55,6.71-4.81,4.14-7.92S2.6,0,2.25,4.19c-.38,4.52,5,7.29,8.21,3.91A4.52,4.52,0,0,0,6.54.43C1.62,1,1.8,8,6.35,9.09a4.34,4.34,0,0,0,5-3.35A4.44,4.44,0,0,0,7.8.51C5.92.15,5.11,3,7,3.4,8.18,3.63,9.3,5.19,7.8,6A1.41,1.41,0,0,1,5.87,5c-.61-2,2.67-2.1,3-.42C9.29,7,5.13,7.41,5.22,4.61c.07-2,3.39-2.23,3.68-.21A1.78,1.78,0,0,1,5.54,5.54C4.61,3.93,6.61,2.69,8,3.51c1.72,1-.61,3.62-2,2.66-1-.75-.28-3,.93-3.1l-1.5-1.5A2.93,2.93,0,0,1,1.92,4l.9,2.2A5.27,5.27,0,0,1,8.53,3.76L7.43,2.31c0,2.55-3.26,3.83-5.17,2.37L2.56,7,6.33,3.63C7.76,2.33,5.64.21,4.21,1.51Z"/></g></g></svg>