<svg xmlns="http://www.w3.org/2000/svg" width="11.61" height="11.63" viewBox="0 0 11.61 11.63"><title>dot-4</title><g id="Layer_2" data-name="Layer 2"><g id="dot_04" data-name="dot 04"><path d="M4.06,5.14a2.68,2.68,0,0,0,4.3-1c.9-1.89-.58-3.72-2.46-4C1.17-.73-1.49,5.44.88,9A5.86,5.86,0,0,0,11,8.34,5.43,5.43,0,0,0,5.51.57C1.37.95-.2,5.89,2.25,9c2.67,3.37,7.85,1.33,8.5-2.64.68-4.14-4.22-6.22-7.4-4.24C-.44,4.45,1.78,9.88,5.7,10.48c4.61.7,6.38-5.44,3.3-8.25C5.16-1.27-.19,4.31,2.12,8.41a1.56,1.56,0,0,0,1.69.69c2.88-.41,7-2.38,5.53-6.05a3.09,3.09,0,0,0-5.71.08c-.74,1.78,2.16,2.55,2.89.8q-.39.28-.13.23t.22.14A1.64,1.64,0,0,1,5.9,5.41,6.43,6.43,0,0,1,3,6.2l1.69.69C3.79,5.26,6.35,3,7.36,5,8.25,6.67,6.59,8.37,5,7s.1-3.14,1.81-2.55c2.06.71.33,3.74-1.42,3.3S3.56,4.52,5,3.76A2.5,2.5,0,0,1,8.57,6.39,2.85,2.85,0,1,1,3.23,4.52,2.7,2.7,0,0,1,4.37,3.23C4.74,3,5.81,2.68,6.18,3c-1.41-1.32-3.53.8-2.12,2.12Z"/></g></g></svg>